<svg xmlns="http://www.w3.org/2000/svg" height="30" viewBox="0 -960 960 960" width="30"><path d="M473.462-88q-80.539 0-151.847-30.923-71.307-30.923-124.038-83.654Q144.846-255.308 113.923-327 83-398.692 83-480q0-82.308 31.038-154 31.039-71.692 85.654-124.808 54.616-53.115 128.077-83.154Q401.231-872 484.538-872q78.001 0 148.808 26.654 70.808 26.653 124.923 73.615 54.116 46.962 86.424 111Q877-596.692 877-520.154q0 110.693-69.461 169.423Q738.077-292 639-292h-46.923q-19.154 0-35.115 14.808Q541-262.385 541-240.923q0 19.077 10 29.077T561-178q0 33.231-26.346 61.616Q508.308-88 473.462-88ZM480-480Zm-229 32q20.769 0 36.385-15.615Q303-479.231 303-500t-15.615-36.385Q271.769-552 251-552t-36.385 15.615Q199-520.769 199-500t15.615 36.385Q230.231-448 251-448Zm122-164q20.769 0 36.385-15.615Q425-643.231 425-664t-15.615-36.385Q393.769-716 373-716t-36.385 15.615Q321-684.769 321-664t15.615 36.385Q352.231-612 373-612Zm204 0q20.769 0 36.385-15.615Q629-643.231 629-664t-15.615-36.385Q597.769-716 577-716t-36.385 15.615Q525-684.769 525-664t15.615 36.385Q556.231-612 577-612Zm124 164q20.769 0 36.385-15.615Q753-479.231 753-500t-15.615-36.385Q721.769-552 701-552t-36.385 15.615Q649-520.769 649-500t15.615 36.385Q680.231-448 701-448ZM469.462-154q12.538 0 19.038-4.115Q495-162.231 495-172q0-15-15-28.423-15-13.423-15-49.885 0-46.538 30-77.115Q525-358 567-358h72q71.231 0 121.615-39.269Q811-436.538 811-520.154q0-127.769-98.654-206.808Q613.692-806 484.538-806q-141.307 0-238.423 94.5Q149-617 149-480q0 136 93 231t227.462 95Z"/></svg>